# xmcd CD database file
#
# Track frame offsets:
#	150
#	14507
#	26327
#	37580
#	52592
#	72165
#	84695
#	101445
#	119925
#	134592
#	155782
#	173605
#	192702
#
# Disc length: 2716 seconds
#
# Revision: 0
# Processed by: cddbd v1.5.1PL0 Copyright (c) Steve Scherf et al.
# Submitted via: CDex 1.51
#
DISCID=ac0a9a0d
DTITLE=The Montana Mandolin Society - The Bridger Waltz
DYEAR=2002
DGENRE=Jazz
TTITLE0=New York Ideal March
TTITLE1=Canisp
TTITLE2=O'Carolan's Frolic
TTITLE3=Heart of the Heartland
TTITLE4=Saratoga Blues
TTITLE5=Beethoven's Favorite
TTITLE6=Acordai Doncela/Chorinho
TTITLE7=Texas Fox Trot
TTITLE8=Far East/Petunia's Jig
TTITLE9=Misty
TTITLE10=The Bridger Waltz
TTITLE11=Rondo Eine Kleine Nachtmusik
TTITLE12=Augusta at Midnight
EXTD=YEAR: 2002
EXTT0=
EXTT1=
EXTT2=
EXTT3=
EXTT4=
EXTT5=
EXTT6=
EXTT7=
EXTT8=
EXTT9=
EXTT10=
EXTT11=
EXTT12=
PLAYORDER=
